<svg version="1.1" xmlns="http://www.w3.org/2000/svg" xmlns:xlink="http://www.w3.org/1999/xlink" width="0" height="0" class="hidden">

    <symbol id="facebook" xmlns="http://www.w3.org/2000/svg" viewBox="0 0 10 19"><path d="M9.622.003L7.223-.001c-2.694 0-4.435 1.835-4.435 4.676v2.156H.376A.382.382 0 0 0 0 7.218v3.124c0 .214.169.387.377.387h2.411v7.882c0 .214.169.388.378.388H6.31a.383.383 0 0 0 .378-.388V10.73h2.819a.382.382 0 0 0 .377-.387l.001-3.124c0-.102-.04-.2-.11-.274a.372.372 0 0 0-.268-.113h-2.82V5.003c0-.878.204-1.324 1.318-1.324l1.616-.001a.382.382 0 0 0 .376-.387V.39a.382.382 0 0 0-.376-.387z"/></symbol>

    <symbol id="yt" xmlns="http://www.w3.org/2000/svg" viewBox="0 0 27 20">
        <path d="M27.05 10.01c0 2.126-.001 4.38-.474 6.444-.332 1.449-1.511 2.519-2.93 2.678-3.36.377-6.762.38-10.15.377-3.387.003-6.79 0-10.15-.377-1.42-.159-2.599-1.229-2.93-2.678-.473-2.065-.473-4.318-.473-6.443 0-2.126.006-4.379.478-6.444C.753 2.118 1.931 1.05 3.35.89 6.71.51 10.114.509 13.5.51c3.387-.002 6.79 0 10.15.378 1.42.16 2.6 1.229 2.93 2.678.473 2.065.47 4.318.47 6.444zm-8.433-.262L9.998 5.227v9.014l8.619-4.493z"/>
    </symbol>

    <symbol id="arrow" xmlns="http://www.w3.org/2000/svg" viewBox="0 0 14 7"><path d="M13.999.784l-.938-.787L6.998 5.38.938-.003l-.94.787 7 6.216z"/></symbol>

    <symbol id="b-logo" xmlns="http://www.w3.org/2000/svg" viewBox="0 0 20 20"><path d="M6.52 19.498C3.208 19.498.5 16.8.5 13.505V6.502C.499 3.202 3.209.5 6.52.5h4.211c1.555.184 3.818 1.51 4.652 3.274.23.497.35.573.54 2.039.102.757.154 1.315.493 1.624.477.433 2.248.14 2.598.415l.269.208.16.332.055.264-.037 4.85c-.018 3.295-2.71 5.993-6.022 5.993zM5.445 6.55c0 .626.515 1.148 1.152 1.148h3.339c.637 0 1.153-.522 1.153-1.148 0-.629-.516-1.146-1.153-1.146H6.597c-.637 0-1.152.517-1.152 1.146zm1.152 8.01h6.784c.633 0 1.147-.523 1.147-1.143 0-.629-.514-1.142-1.147-1.142H6.597c-.637 0-1.152.513-1.152 1.142 0 .62.515 1.142 1.152 1.142z"/></symbol>

    <symbol id="g+" xmlns="http://www.w3.org/2000/svg" viewBox="0 0 25 19"><path d="M19.127 8.442v2.96c-.881 4.34-4.909 7.607-9.51 7.607a9.511 9.511 0 1 1 6.656-16.304L14.124 5.04a6.34 6.34 0 1 0-4.508 10.8 6.343 6.343 0 0 0 6.05-4.439H10.25V8.442zm5.765 1.551h-1.816v1.816H21.52V9.993h-1.816V8.437h1.816V6.622h1.556v1.815h1.816z"/></symbol>

    <symbol id="search-loop" xmlns="http://www.w3.org/2000/svg" viewBox="0 0 24 24"><path d="M17.081 14.735c.365.076.713.253.995.535l5.334 5.333a1.984 1.984 0 1 1-2.807 2.806l-5.333-5.331a1.991 1.991 0 0 1-.536-.995c-3.66 2.545-8.738 2.196-12-1.064-3.66-3.662-3.66-9.62 0-13.284 3.662-3.662 9.622-3.662 13.284 0 3.261 3.263 3.611 8.34 1.063 12zM14.334 4.42a7.02 7.02 0 0 0-9.916 0c-2.732 2.734-2.732 7.181 0 9.916a7.022 7.022 0 0 0 9.916 0 7.019 7.019 0 0 0 0-9.916z"/></symbol>

    <symbol id="twitter" xmlns="http://www.w3.org/2000/svg" viewBox="0 0 24 19"><path d="M24.198 2.242c-.86.382-1.786.64-2.757.756A4.817 4.817 0 0 0 23.55.342c-.927.55-1.954.95-3.048 1.165a4.8 4.8 0 0 0-8.18 4.378A13.628 13.628 0 0 1 2.429.87a4.777 4.777 0 0 0-.65 2.413c0 1.666.847 3.135 2.135 3.996a4.782 4.782 0 0 1-2.174-.6v.06a4.803 4.803 0 0 0 3.85 4.707 4.802 4.802 0 0 1-2.168.082 4.804 4.804 0 0 0 4.485 3.333A9.633 9.633 0 0 1 .8 16.85a13.588 13.588 0 0 0 7.358 2.158c8.83 0 13.658-7.315 13.658-13.659 0-.208-.004-.415-.014-.62a9.753 9.753 0 0 0 2.396-2.486z"/></symbol>
</svg>